<svg width="20" height="27" xmlns="http://www.w3.org/2000/svg"><path d="M11 .6A10 10 0 0 0 0 9.3v1.2c0 2 .6 4 1.8 5.6 1 1.4 1.7 2.8 2.3 4.4.2.8.4 1.6.4 2.4v.8C4.5 25.5 6 27 7.8 27h4.4c1.8 0 3.3-1.5 3.3-3.3v-.8c0-.9 0-1.6.4-2.4.5-1.5 1.2-3 2.2-4.4a9.9 9.9 0 0 0-2.5-13.7c-1.4-1-3-1.6-4.5-1.8zm2.2 23c0 .7-.5 1.2-1 1.2H7.6c-.6 0-1-.5-1-1.1v-2.2h6.5v2.2zm3-8.7a20 20 0 0 0-2.3 4.4H11v-5.7c2-.5 3.3-2.2 3.3-4.2 0-.6-.5-1.1-1-1.1-.7 0-1.2.5-1.2 1 0 1.3-1 2.3-2.2 2.3-1.2 0-2.2-1-2.2-2.2 0-.6-.5-1.1-1-1.1-.7 0-1.2.5-1.2 1 0 2 1.4 3.8 3.3 4.3v5.7H6a20 20 0 0 0-2.4-4.4A7.7 7.7 0 0 1 9.9 2.8a7.7 7.7 0 0 1 6.4 12z" fill="#FFF" fill-rule="nonzero"/></svg>