<?xml version="1.0" encoding="UTF-8"?>
<svg width="25px" height="23px" viewBox="0 0 25 23" version="1.1" xmlns="http://www.w3.org/2000/svg" xmlns:xlink="http://www.w3.org/1999/xlink">
    <!-- Generator: sketchtool 50.2 (55047) - http://www.bohemiancoding.com/sketch -->
    <title>4DD365AA-4148-4B73-A6B0-83255110998C</title>
    <desc>Created with sketchtool.</desc>
    <defs></defs>
    <g id="Page-1" stroke="none" stroke-width="1" fill="none" fill-rule="evenodd">
        <g id="Idelådan" transform="translate(-27.000000, -260.000000)">
            <g id="Plats" transform="translate(17.000000, 223.000000)">
                <g transform="translate(0.000000, 28.000000)" id="Location-icon">
                    <g transform="translate(10.000000, 9.000000)">
                        <path d="M12.5,20 C14.7705954,20 16.9059951,19.1160277 18.5110114,17.5110114 C20.1160277,15.9059951 21,13.7705954 21,11.5 C21,9.22940457 20.1160277,7.09400489 18.5110114,5.48898858 C16.9059951,3.88397227 14.7705954,3 12.5,3 C10.2294046,3 8.09400489,3.88397227 6.48898858,5.48898858 C4.88397227,7.09400489 4,9.22940457 4,11.5 C4,13.7705954 4.88397227,15.9059951 6.48898858,17.5110114 C8.09400489,19.1160277 10.2294046,20 12.5,20 Z" id="forbidden" stroke="#FFFFFF" stroke-width="2" fill-rule="nonzero"></path>
                        <rect id="Rectangle" fill="#FFFFFF" x="11" y="0" width="3" height="6"></rect>
                        <rect id="Rectangle-Copy-2" fill="#FFFFFF" transform="translate(21.500000, 12.000000) rotate(-270.000000) translate(-21.500000, -12.000000) " x="20" y="9" width="3" height="6"></rect>
                        <rect id="Rectangle-Copy-3" fill="#FFFFFF" transform="translate(3.500000, 12.000000) rotate(-270.000000) translate(-3.500000, -12.000000) " x="2" y="9" width="3" height="6"></rect>
                        <rect id="Rectangle-Copy" fill="#FFFFFF" x="11" y="17" width="3" height="6"></rect>
                    </g>
                </g>
            </g>
        </g>
    </g>
</svg>