<svg width="38" height="30" xmlns="http://www.w3.org/2000/svg"><g fill="none" fill-rule="evenodd"><path fill="#FFF" d="M-28-15h375v59.03H-28z"/><path d="M11.76 8.35a4.86 4.86 0 0 1 4.71 4.9 4.78 4.78 0 0 1-4.65 4.67A4.78 4.78 0 0 1 7 13.06c0-2.66 2.18-4.7 4.77-4.7zm-.06 13.42c2.59 0 4.27-.73 5.2-2.38v2.01H21V5h-4.11v1.99c-1.1-1.62-2.84-2.42-5.27-2.42-2.53 0-4.53.8-6.21 2.54A8.53 8.53 0 0 0 3 13.12a8.5 8.5 0 0 0 8.7 8.65zm24.78-8.43l-3.3-3.19c.68.84 1.1 1.91 1.1 3.1a4.78 4.78 0 0 1-4.65 4.68 4.83 4.83 0 0 1-3.73-1.72v9.65H0l3.72 3.66h25.9v-9.63l.33.33a4.85 4.85 0 0 0 3.4 1.36A4.78 4.78 0 0 0 38 16.9c0-1.42-.6-2.67-1.52-3.56zm-6.92-4.98h.07V4.13L25.9.48v9.56a4.8 4.8 0 0 1 3.66-1.68z" fill="#6EC81E"/></g></svg>