<?xml version="1.0" encoding="UTF-8"?>
<svg width="38px" height="30px" viewBox="0 0 38 30" version="1.1" xmlns="http://www.w3.org/2000/svg" xmlns:xlink="http://www.w3.org/1999/xlink">
    <!-- Generator: sketchtool 50 (54983) - http://www.bohemiancoding.com/sketch -->
    <title>FA47CF9A-E433-42F7-B91F-3E04CC3C3C58</title>
    <desc>Created with sketchtool.</desc>
    <defs></defs>
    <g id="Page-1" stroke="none" stroke-width="1" fill="none" fill-rule="evenodd">
        <g id="Idelådan" transform="translate(-29.000000, -15.000000)">
            <g id="Header" transform="translate(1.000000, 0.000000)">
                <g id="header-copy">
                    <rect id="bg-nav" fill="#FFFFFF" x="0" y="0" width="375" height="59.0322581"></rect>
                    <g id="logo" transform="translate(28.000000, 15.483871)" fill="#6EC81E">
                        <path d="M11.7602504,7.86885325 C14.225788,7.86885325 16.4709423,10.0079695 16.4709423,12.7590193 C16.4709423,15.2964106 14.2561645,17.4338398 11.8238319,17.4338398 C9.20296839,17.4338398 6.98917437,15.418966 6.98917437,12.5745234 C6.98917437,9.91542029 9.17234594,7.86885325 11.7602504,7.86885325 Z M11.6988825,21.2869243 C14.2877708,21.2869243 15.9723744,20.5541224 16.9081424,18.9026972 L16.9081424,20.9201016 L20.9899058,20.9201016 L20.9899058,4.50623141 L16.8775199,4.50623141 L16.8775199,6.49242454 C15.7851962,4.87245158 14.0389787,4.07795023 11.6054164,4.07795023 C9.07814194,4.07795023 7.08227154,4.87245158 5.39705297,6.61401591 C3.83813663,8.20506723 2.99558884,10.3441835 2.99558884,12.63791 C2.99558884,17.527353 6.70730026,21.2869243 11.6988825,21.2869243 Z M36.479208,12.85904 L36.4805608,12.8584374 L33.1799773,9.66910439 C33.8555159,10.5051806 34.2752525,11.5794987 34.2752525,12.7663702 C34.2752525,15.304364 32.0614585,17.4449264 29.6274042,17.4449264 C28.1468272,17.4449264 26.7987016,16.8003355 25.9026567,15.7279454 L25.9026567,25.3807814 L0,25.3807814 L3.72314872,29.0322581 L29.6267893,29.0322581 L29.6267893,19.4026799 L29.9544126,19.732507 C30.8356997,20.5912385 32.0419044,21.095439 33.3514138,21.095439 C35.786329,21.095439 38,18.9552381 38,16.4183289 C38,14.9973127 37.3980045,13.7433189 36.479208,12.85904 Z M29.5641916,7.87620416 L29.6267893,7.87777075 L29.6267893,3.6505126 L25.9026567,0 L25.9026567,9.55968421 C26.7857885,8.52320519 28.1110396,7.87620416 29.5641916,7.87620416 Z" id="Fill-1"></path>
                    </g>
                </g>
            </g>
        </g>
    </g>
</svg>