<?xml version="1.0" standalone="no"?>
<!DOCTYPE svg PUBLIC "-//W3C//DTD SVG 20010904//EN"
 "http://www.w3.org/TR/2001/REC-SVG-20010904/DTD/svg10.dtd">
<svg version="1.0" xmlns="http://www.w3.org/2000/svg"
 width="512.000000pt" height="512.000000pt" viewBox="0 0 512.000000 512.000000"
 preserveAspectRatio="xMidYMid meet">
<metadata>
Created by potrace 1.11, written by Peter Selinger 2001-2013
</metadata>
<g transform="translate(0.000000,512.000000) scale(0.100000,-0.100000)"
fill="#000000" stroke="none">
<path d="M3426 4470 c-3 -13 0 -1198 3 -1210 0 -2 22 17 49 42 92 90 192 139
322 159 41 6 81 13 88 15 9 3 12 66 12 273 l0 270 -235 233 c-149 147 -237
227 -239 218z"/>
<path d="M1425 3953 c-62 -9 -183 -45 -258 -78 -208 -90 -405 -280 -510 -490
-88 -176 -121 -321 -121 -525 0 -188 19 -283 92 -460 115 -281 370 -511 664
-599 136 -41 173 -46 348 -46 206 0 290 15 416 75 67 32 95 54 158 120 l76 82
0 -116 c0 -113 1 -116 23 -117 64 -4 446 -4 470 -1 l27 4 0 1054 0 1054 -260
0 -260 0 0 -115 c0 -63 -2 -115 -4 -115 -3 0 -40 35 -83 78 -105 102 -213 158
-365 187 -75 14 -333 19 -413 8z m395 -513 c181 -64 316 -204 387 -405 14 -38
18 -81 18 -185 0 -143 -1 -149 -59 -270 -43 -90 -176 -224 -266 -267 -109 -51
-137 -58 -260 -57 -97 1 -126 5 -186 26 -130 47 -240 134 -313 247 -22 35 -41
69 -41 75 0 6 -7 24 -15 39 -17 34 -45 173 -45 229 0 71 31 192 68 268 72 147
231 275 394 316 79 20 237 12 318 -16z"/>
<path d="M4360 3228 c0 -3 16 -31 35 -63 62 -104 80 -174 80 -315 0 -95 -5
-137 -18 -175 -67 -184 -206 -329 -377 -394 -86 -33 -274 -37 -360 -7 -82 27
-172 80 -234 136 -30 28 -56 47 -58 43 -3 -4 -4 -276 -3 -603 1 -327 -1 -601
-3 -607 -3 -10 -340 -13 -1641 -13 l-1636 0 240 -238 240 -238 1635 0 1635 1
3 608 c1 334 5 607 8 607 2 0 32 -23 65 -50 121 -101 234 -142 394 -141 127 0
188 17 296 81 146 87 289 297 289 427 0 18 5 33 10 33 6 0 10 24 10 54 0 30
-4 58 -10 61 -5 3 -10 21 -10 39 0 47 -43 168 -87 239 -23 40 -101 126 -212
238 -184 184 -291 286 -291 277z"/>
</g>
</svg>
